<?xml version="1.0" encoding="UTF-8" standalone="no"?>
<!DOCTYPE svg PUBLIC "-//W3C//DTD SVG 1.1//EN"
 "http://www.w3.org/Graphics/SVG/1.1/DTD/svg11.dtd">
<!-- Generated by graphviz version 2.47.3 (20210619.1520)
 -->
<!-- Title: default Pages: 1 -->
<svg width="165pt" height="392pt"
 viewBox="0.00 0.00 165.20 392.00" xmlns="http://www.w3.org/2000/svg" xmlns:xlink="http://www.w3.org/1999/xlink">
<g id="graph0" class="graph" transform="scale(1 1) rotate(0) translate(4 388)">
<title>default</title>
<polygon fill="white" stroke="transparent" points="-4,4 -4,-388 161.2,-388 161.2,4 -4,4"/>
<!-- bacalar -->
<g id="node1" class="node">
<title>bacalar</title>
<g id="a_node1"><a xlink:href="https://goo.gl/maps/AFkZxN7N7CQKTzmw6" xlink:title="bacalar">
<ellipse fill="none" stroke="black" cx="80.2" cy="-366" rx="37.09" ry="18"/>
<text text-anchor="middle" x="80.2" y="-362.3" font-family="Times,serif" font-size="14.00">bacalar</text>
</a>
</g>
</g>
<!-- chetumal -->
<g id="node3" class="node">
<title>chetumal</title>
<g id="a_node3"><a xlink:href="https://goo.gl/maps/DeWhAYJv2AcnpuWU9" xlink:title="chetumal">
<ellipse fill="none" stroke="black" cx="44.2" cy="-279" rx="44.39" ry="18"/>
<text text-anchor="middle" x="44.2" y="-275.3" font-family="Times,serif" font-size="14.00">chetumal</text>
</a>
</g>
</g>
<!-- bacalar&#45;&gt;chetumal -->
<g id="edge1" class="edge">
<title>bacalar&#45;&gt;chetumal</title>
<path fill="none" stroke="blue" d="M70.52,-348.55C67.33,-342.79 63.91,-336.21 61.2,-330 57.92,-322.52 54.87,-314.2 52.28,-306.53"/>
<polygon fill="blue" stroke="blue" points="55.59,-305.37 49.17,-296.94 48.93,-307.53 55.59,-305.37"/>
<text text-anchor="middle" x="81.7" y="-318.8" font-family="Times,serif" font-size="14.00">bus 1 h</text>
</g>
<!-- tulum -->
<g id="node2" class="node">
<title>tulum</title>
<g id="a_node2"><a xlink:href="https://goo.gl/maps/y8bsP2dQPDxqad8m9" xlink:title="tulum">
<ellipse fill="none" stroke="black" cx="83.2" cy="-18" rx="31.7" ry="18"/>
<text text-anchor="middle" x="83.2" y="-14.3" font-family="Times,serif" font-size="14.00">tulum</text>
</a>
</g>
</g>
<!-- tulum&#45;&gt;bacalar -->
<g id="edge4" class="edge">
<title>tulum&#45;&gt;bacalar</title>
<path fill="none" stroke="blue" d="M93.64,-35.21C103.31,-51.8 116.2,-78.67 116.2,-104 116.2,-280 116.2,-280 116.2,-280 116.2,-301.3 106.49,-323.4 97.16,-339.72"/>
<polygon fill="blue" stroke="blue" points="93.96,-338.24 91.78,-348.61 99.95,-341.86 93.96,-338.24"/>
<text text-anchor="middle" x="136.7" y="-188.3" font-family="Times,serif" font-size="14.00">bus 3 h</text>
</g>
<!-- merida -->
<g id="node4" class="node">
<title>merida</title>
<g id="a_node4"><a xlink:href="https://goo.gl/maps/R9xdcwD6p9Nq7vyr6" xlink:title="merida">
<ellipse fill="none" stroke="black" cx="44.2" cy="-192" rx="36" ry="18"/>
<text text-anchor="middle" x="44.2" y="-188.3" font-family="Times,serif" font-size="14.00">merida</text>
</a>
</g>
</g>
<!-- chetumal&#45;&gt;merida -->
<g id="edge3" class="edge">
<title>chetumal&#45;&gt;merida</title>
<path fill="none" stroke="blue" d="M44.2,-260.8C44.2,-249.16 44.2,-233.55 44.2,-220.24"/>
<polygon fill="blue" stroke="blue" points="47.7,-220.18 44.2,-210.18 40.7,-220.18 47.7,-220.18"/>
<text text-anchor="middle" x="68.7" y="-231.8" font-family="Times,serif" font-size="14.00">plain 1 h</text>
</g>
<!-- cancun -->
<g id="node5" class="node">
<title>cancun</title>
<g id="a_node5"><a xlink:href="https://goo.gl/maps/P95zJd5ZkPLbZKhJ6" xlink:title="cancun">
<ellipse fill="blue" stroke="blue" cx="50.2" cy="-105" rx="36.29" ry="18"/>
<text text-anchor="middle" x="50.2" y="-101.3" font-family="Times,serif" font-size="14.00">cancun</text>
</a>
</g>
</g>
<!-- merida&#45;&gt;cancun -->
<g id="edge5" class="edge">
<title>merida&#45;&gt;cancun</title>
<path fill="none" stroke="blue" d="M45.41,-173.8C46.23,-162.16 47.33,-146.55 48.27,-133.24"/>
<polygon fill="blue" stroke="blue" points="51.77,-133.4 48.98,-123.18 44.79,-132.9 51.77,-133.4"/>
<text text-anchor="middle" x="72.7" y="-144.8" font-family="Times,serif" font-size="14.00">plain 1 h</text>
</g>
<!-- cancun&#45;&gt;tulum -->
<g id="edge2" class="edge">
<title>cancun&#45;&gt;tulum</title>
<path fill="none" stroke="blue" d="M52.46,-86.9C54.13,-77.03 56.88,-64.53 61.2,-54 62.61,-50.54 64.36,-47.04 66.25,-43.66"/>
<polygon fill="blue" stroke="blue" points="69.25,-45.47 71.45,-35.1 63.27,-41.84 69.25,-45.47"/>
<text text-anchor="middle" x="81.7" y="-57.8" font-family="Times,serif" font-size="14.00">bus 2 h</text>
</g>
</g>
</svg>
