<?xml version="1.0" encoding="UTF-8" standalone="no"?>
<!DOCTYPE svg PUBLIC "-//W3C//DTD SVG 1.1//EN"
 "http://www.w3.org/Graphics/SVG/1.1/DTD/svg11.dtd">
<!-- Generated by graphviz version 2.47.3 (20210619.1520)
 -->
<!-- Title: default Pages: 1 -->
<svg width="643pt" height="260pt"
 viewBox="0.00 0.00 642.94 260.00" xmlns="http://www.w3.org/2000/svg" xmlns:xlink="http://www.w3.org/1999/xlink">
<g id="graph0" class="graph" transform="scale(1 1) rotate(0) translate(4 256)">
<title>default</title>
<polygon fill="white" stroke="transparent" points="-4,4 -4,-256 638.94,-256 638.94,4 -4,4"/>
<!-- dylan -->
<g id="dylan" class="node hidden george expandible poppy">
<title>dylan</title>
<ellipse fill="lightgrey" stroke="black" cx="31.2" cy="-90" rx="31.4" ry="18"/>
<text text-anchor="middle" x="31.2" y="-86.3" font-family="Times,serif" font-size="14.00">dylan</text>
</g>
<!-- poppy -->
<g id="poppy" class="node dylan expandible hidden haley">
<title>poppy</title>
<ellipse fill="lightgrey" stroke="black" cx="100.2" cy="-18" rx="33.29" ry="18"/>
<text text-anchor="middle" x="100.2" y="-14.3" font-family="Times,serif" font-size="14.00">poppy</text>
</g>
<!-- dylan&#45;&gt;poppy -->
<g id="edge3" class="edge expandible hidden poppy dylan">
<title>dylan&#45;&gt;poppy</title>
<path fill="none" stroke="black" d="M46.17,-73.81C55.48,-64.36 67.63,-52.04 78.04,-41.48"/>
<polygon fill="black" stroke="black" points="80.73,-43.74 85.25,-34.16 75.74,-38.82 80.73,-43.74"/>
</g>
<!-- george -->
<g id="george" class="node dylan expandible hidden haley">
<title>george</title>
<ellipse fill="lightgrey" stroke="black" cx="220.2" cy="-18" rx="35.19" ry="18"/>
<text text-anchor="middle" x="220.2" y="-14.3" font-family="Times,serif" font-size="14.00">george</text>
</g>
<!-- dylan&#45;&gt;george -->
<g id="edge9" class="edge george dylan expandible hidden">
<title>dylan&#45;&gt;george</title>
<path fill="none" stroke="black" d="M55.64,-78.34C60.76,-76.18 66.14,-73.97 71.2,-72 108.54,-57.44 151.75,-42.25 181.99,-31.88"/>
<polygon fill="black" stroke="black" points="183.39,-35.1 191.72,-28.56 181.13,-28.48 183.39,-35.1"/>
</g>
<!-- luke -->
<g id="luke" class="node expandible phil claire hidden">
<title>luke</title>
<ellipse fill="lightgrey" stroke="black" cx="107.2" cy="-90" rx="27" ry="18"/>
<text text-anchor="middle" x="107.2" y="-86.3" font-family="Times,serif" font-size="14.00">luke</text>
</g>
<!-- joe -->
<g id="joe" class="node expandible hidden jay gloria">
<title>joe</title>
<ellipse fill="lightgrey" stroke="black" cx="518.2" cy="-162" rx="27" ry="18"/>
<text text-anchor="middle" x="518.2" y="-158.3" font-family="Times,serif" font-size="14.00">joe</text>
</g>
<!-- gloria -->
<g id="gloria" class="node joe manny expandible hidden">
<title>gloria</title>
<ellipse fill="lightgrey" stroke="black" cx="518.2" cy="-234" rx="31.7" ry="18"/>
<text text-anchor="middle" x="518.2" y="-230.3" font-family="Times,serif" font-size="14.00">gloria</text>
</g>
<!-- gloria&#45;&gt;joe -->
<g id="edge22" class="edge hidden expandible joe gloria">
<title>gloria&#45;&gt;joe</title>
<path fill="none" stroke="black" d="M518.2,-215.7C518.2,-207.98 518.2,-198.71 518.2,-190.11"/>
<polygon fill="black" stroke="black" points="521.7,-190.1 518.2,-180.1 514.7,-190.1 521.7,-190.1"/>
</g>
<!-- manny -->
<g id="manny" class="node javier gloria expandible hidden">
<title>manny</title>
<ellipse fill="lightgrey" stroke="black" cx="599.2" cy="-162" rx="36" ry="18"/>
<text text-anchor="middle" x="599.2" y="-158.3" font-family="Times,serif" font-size="14.00">manny</text>
</g>
<!-- gloria&#45;&gt;manny -->
<g id="edge6" class="edge manny gloria hidden expandible">
<title>gloria&#45;&gt;manny</title>
<path fill="none" stroke="black" d="M534.98,-218.5C546.34,-208.68 561.54,-195.54 574.3,-184.51"/>
<polygon fill="black" stroke="black" points="576.6,-187.16 581.88,-177.97 572.02,-181.86 576.6,-187.16"/>
</g>
<!-- claire -->
<g id="claire" class="node jay dede expandible hidden luke alex haley">
<title>claire</title>
<ellipse fill="lightgrey" stroke="black" cx="174.2" cy="-162" rx="31.4" ry="18"/>
<text text-anchor="middle" x="174.2" y="-158.3" font-family="Times,serif" font-size="14.00">claire</text>
</g>
<!-- claire&#45;&gt;luke -->
<g id="edge13" class="edge claire expandible hidden luke">
<title>claire&#45;&gt;luke</title>
<path fill="none" stroke="black" d="M159.66,-145.81C150.49,-136.23 138.5,-123.7 128.3,-113.04"/>
<polygon fill="black" stroke="black" points="130.69,-110.48 121.25,-105.68 125.63,-115.32 130.69,-110.48"/>
</g>
<!-- haley -->
<g id="haley" class="node george poppy phil expandible claire hidden">
<title>haley</title>
<ellipse fill="lightgrey" stroke="black" cx="255.2" cy="-90" rx="30.59" ry="18"/>
<text text-anchor="middle" x="255.2" y="-86.3" font-family="Times,serif" font-size="14.00">haley</text>
</g>
<!-- claire&#45;&gt;haley -->
<g id="edge12" class="edge expandible haley claire hidden">
<title>claire&#45;&gt;haley</title>
<path fill="none" stroke="black" d="M190.98,-146.5C202.57,-136.48 218.16,-123.01 231.08,-111.85"/>
<polygon fill="black" stroke="black" points="233.44,-114.43 238.71,-105.25 228.86,-109.14 233.44,-114.43"/>
</g>
<!-- alex -->
<g id="alex" class="node expandible hidden phil claire">
<title>alex</title>
<ellipse fill="lightgrey" stroke="black" cx="179.2" cy="-90" rx="27" ry="18"/>
<text text-anchor="middle" x="179.2" y="-86.3" font-family="Times,serif" font-size="14.00">alex</text>
</g>
<!-- claire&#45;&gt;alex -->
<g id="edge8" class="edge claire hidden expandible alex">
<title>claire&#45;&gt;alex</title>
<path fill="none" stroke="black" d="M175.43,-143.7C175.98,-135.98 176.65,-126.71 177.26,-118.11"/>
<polygon fill="black" stroke="black" points="180.75,-118.33 177.98,-108.1 173.77,-117.83 180.75,-118.33"/>
</g>
<!-- phil -->
<g id="phil" class="node alex expandible hidden luke haley">
<title>phil</title>
<ellipse fill="lightgrey" stroke="black" cx="250.2" cy="-162" rx="27" ry="18"/>
<text text-anchor="middle" x="250.2" y="-158.3" font-family="Times,serif" font-size="14.00">phil</text>
</g>
<!-- phil&#45;&gt;luke -->
<g id="edge4" class="edge hidden luke phil expandible">
<title>phil&#45;&gt;luke</title>
<path fill="none" stroke="black" d="M229.1,-150.67C204.91,-138.83 165.07,-119.33 137.56,-105.86"/>
<polygon fill="black" stroke="black" points="138.9,-102.62 128.38,-101.37 135.83,-108.91 138.9,-102.62"/>
</g>
<!-- phil&#45;&gt;haley -->
<g id="edge1" class="edge phil haley expandible hidden">
<title>phil&#45;&gt;haley</title>
<path fill="none" stroke="black" d="M251.43,-143.7C251.98,-135.98 252.65,-126.71 253.26,-118.11"/>
<polygon fill="black" stroke="black" points="256.75,-118.33 253.98,-108.1 249.77,-117.83 256.75,-118.33"/>
</g>
<!-- phil&#45;&gt;alex -->
<g id="edge20" class="edge hidden phil expandible alex">
<title>phil&#45;&gt;alex</title>
<path fill="none" stroke="black" d="M235.49,-146.5C225.59,-136.73 212.35,-123.69 201.21,-112.7"/>
<polygon fill="black" stroke="black" points="203.47,-110.01 193.89,-105.49 198.55,-115 203.47,-110.01"/>
</g>
<!-- haley&#45;&gt;poppy -->
<g id="edge7" class="edge hidden expandible haley poppy">
<title>haley&#45;&gt;poppy</title>
<path fill="none" stroke="black" d="M231.66,-78.37C205.79,-66.69 163.99,-47.81 134.48,-34.48"/>
<polygon fill="black" stroke="black" points="135.54,-31.12 124.99,-30.2 132.66,-37.5 135.54,-31.12"/>
</g>
<!-- haley&#45;&gt;george -->
<g id="edge18" class="edge hidden george haley expandible">
<title>haley&#45;&gt;george</title>
<path fill="none" stroke="black" d="M246.9,-72.41C242.82,-64.25 237.81,-54.22 233.23,-45.07"/>
<polygon fill="black" stroke="black" points="236.28,-43.34 228.68,-35.96 230.02,-46.47 236.28,-43.34"/>
</g>
<!-- cameron -->
<g id="cameron" class="node rex expandible hidden lily">
<title>cameron</title>
<ellipse fill="lightgrey" stroke="black" cx="337.2" cy="-162" rx="42.49" ry="18"/>
<text text-anchor="middle" x="337.2" y="-158.3" font-family="Times,serif" font-size="14.00">cameron</text>
</g>
<!-- lily -->
<g id="lily" class="node mitchel expandible hidden cameron">
<title>lily</title>
<ellipse fill="lightgrey" stroke="black" cx="349.2" cy="-90" rx="27" ry="18"/>
<text text-anchor="middle" x="349.2" y="-86.3" font-family="Times,serif" font-size="14.00">lily</text>
</g>
<!-- cameron&#45;&gt;lily -->
<g id="edge19" class="edge expandible hidden lily cameron">
<title>cameron&#45;&gt;lily</title>
<path fill="none" stroke="black" d="M340.16,-143.7C341.49,-135.98 343.08,-126.71 344.55,-118.11"/>
<polygon fill="black" stroke="black" points="348.03,-118.55 346.27,-108.1 341.13,-117.37 348.03,-118.55"/>
</g>
<!-- rex -->
<g id="rex" class="node cameron mitchel hidden expandible">
<title>rex</title>
<ellipse fill="lightgrey" stroke="black" cx="430.2" cy="-90" rx="27" ry="18"/>
<text text-anchor="middle" x="430.2" y="-86.3" font-family="Times,serif" font-size="14.00">rex</text>
</g>
<!-- cameron&#45;&gt;rex -->
<g id="edge5" class="edge rex hidden expandible cameron">
<title>cameron&#45;&gt;rex</title>
<path fill="none" stroke="black" d="M357.38,-145.81C371.22,-135.39 389.71,-121.48 404.59,-110.28"/>
<polygon fill="black" stroke="black" points="406.99,-112.85 412.87,-104.04 402.78,-107.26 406.99,-112.85"/>
</g>
<!-- javier -->
<g id="javier" class="node manny expandible hidden">
<title>javier</title>
<ellipse fill="lightgrey" stroke="black" cx="599.2" cy="-234" rx="31.4" ry="18"/>
<text text-anchor="middle" x="599.2" y="-230.3" font-family="Times,serif" font-size="14.00">javier</text>
</g>
<!-- javier&#45;&gt;manny -->
<g id="edge10" class="edge manny hidden expandible javier">
<title>javier&#45;&gt;manny</title>
<path fill="none" stroke="black" d="M599.2,-215.7C599.2,-207.98 599.2,-198.71 599.2,-190.11"/>
<polygon fill="black" stroke="black" points="602.7,-190.1 599.2,-180.1 595.7,-190.1 602.7,-190.1"/>
</g>
<!-- mitchel -->
<g id="mitchel" class="node hidden expandible dede jay lily rex">
<title>mitchel</title>
<ellipse fill="lightgrey" stroke="black" cx="435.2" cy="-162" rx="37.89" ry="18"/>
<text text-anchor="middle" x="435.2" y="-158.3" font-family="Times,serif" font-size="14.00">mitchel</text>
</g>
<!-- mitchel&#45;&gt;lily -->
<g id="edge2" class="edge mitchel hidden expandible lily">
<title>mitchel&#45;&gt;lily</title>
<path fill="none" stroke="black" d="M416.96,-146.15C404.38,-135.92 387.52,-122.19 373.76,-111"/>
<polygon fill="black" stroke="black" points="375.63,-108 365.66,-104.4 371.21,-113.43 375.63,-108"/>
</g>
<!-- mitchel&#45;&gt;rex -->
<g id="edge17" class="edge rex expandible mitchel hidden">
<title>mitchel&#45;&gt;rex</title>
<path fill="none" stroke="black" d="M433.96,-143.7C433.41,-135.98 432.75,-126.71 432.13,-118.11"/>
<polygon fill="black" stroke="black" points="435.62,-117.83 431.42,-108.1 428.64,-118.33 435.62,-117.83"/>
</g>
<!-- dede -->
<g id="dede" class="node expandible claire mitchel hidden">
<title>dede</title>
<ellipse fill="lightgrey" stroke="black" cx="268.2" cy="-234" rx="27.9" ry="18"/>
<text text-anchor="middle" x="268.2" y="-230.3" font-family="Times,serif" font-size="14.00">dede</text>
</g>
<!-- dede&#45;&gt;claire -->
<g id="edge11" class="edge claire dede expandible hidden">
<title>dede&#45;&gt;claire</title>
<path fill="none" stroke="black" d="M250.52,-219.83C236.61,-209.47 216.99,-194.87 201.13,-183.06"/>
<polygon fill="black" stroke="black" points="202.87,-179.99 192.76,-176.83 198.69,-185.61 202.87,-179.99"/>
</g>
<!-- dede&#45;&gt;mitchel -->
<g id="edge21" class="edge mitchel dede hidden expandible">
<title>dede&#45;&gt;mitchel</title>
<path fill="none" stroke="black" d="M291.07,-223.41C318.79,-211.79 365.87,-192.06 398.64,-178.32"/>
<polygon fill="black" stroke="black" points="400.03,-181.54 407.9,-174.44 397.32,-175.08 400.03,-181.54"/>
</g>
<!-- jay -->
<g id="jay" class="node joe mitchel expandible claire" fill="blue">
<title>jay</title>
<ellipse fill="lightgrey" stroke="black" cx="435.2" cy="-234" rx="27" ry="18" />
<text text-anchor="middle" x="435.2" y="-230.3" font-family="Times,serif" font-size="14.00">jay</text>
</g>
<!-- jay&#45;&gt;joe -->
<g id="edge14" class="edge joe hidden expandible jay">
<title>jay&#45;&gt;joe</title>
<path fill="none" stroke="black" d="M451.6,-219.17C463.84,-208.85 480.75,-194.58 494.47,-183.01"/>
<polygon fill="black" stroke="black" points="496.73,-185.69 502.12,-176.56 492.21,-180.33 496.73,-185.69"/>
</g>
<!-- jay&#45;&gt;claire -->
<g id="edge16" class="edge jay claire expandible hidden">
<title>jay&#45;&gt;claire</title>
<path fill="none" stroke="black" d="M409.29,-228.24C367.6,-220.27 283.33,-202.8 214.2,-180 211.96,-179.26 209.67,-178.45 207.38,-177.6"/>
<polygon fill="black" stroke="black" points="208.65,-174.33 198.06,-173.91 206.07,-180.84 208.65,-174.33"/>
</g>
<!-- jay&#45;&gt;mitchel -->
<g id="edge15" class="edge mitchel hidden expandible jay">
<title>jay&#45;&gt;mitchel</title>
<path fill="none" stroke="black" d="M435.2,-215.7C435.2,-207.98 435.2,-198.71 435.2,-190.11"/>
<polygon fill="black" stroke="black" points="438.7,-190.1 435.2,-180.1 431.7,-190.1 438.7,-190.1"/>
</g>
</g>
<style>
.hidden{
    visibility: hidden;
}
</style>
<script>
      <script type="text/javascript">
        var expandible = Object.values(document.getElementsByClassName('expandible'));
        window.onload=function(){
            expandible.forEach(link => {
                link.addEventListener("click", function() {
                  var children = Object.values(document.getElementsByClassName(link.id));
                  children.forEach(c => {
                    c.style.visibility="visible"
                    })
                })
                link.addEventListener("mouseenter", function() {
                  link.style.fill= "#DA4567"
                  var children = Object.values(document.getElementsByClassName(link.id));
                  children.forEach(c => {
                        <!-- c.style.fill= "#DA4567" -->
                        c.style.setProperty('fill', '');
                        c.setAttribute('style', c.style.cssText + ' fill:#DA4567 !important;');
                        console.log(c)
                        <!-- c.style.setProperty("fill","#DA4567","important") -->
                    })
                })
                link.addEventListener("mouseleave", function() {
                  link.style.fill= "#FFFF00"
                  var children = Object.values(document.getElementsByClassName(link.id));
                  children.forEach(c => {
                        c.style.fill= "#FFFF00"
                    })
                })
            });
        }
      </script> 

</script>
</svg>

